<mxfile host="app.diagrams.net" modified="2023-06-02T05:04:59.319Z" agent="Mozilla/5.0 (Windows NT 10.0; Win64; x64) AppleWebKit/537.36 (KHTML, like Gecko) Chrome/113.0.0.0 Safari/537.36" etag="UxaQzqYQUokK8DNOvASD" version="21.3.6" type="device">
  <diagram name="Page-1" id="Zl3ADqsC5E80BCqXBkZ9">
    <mxGraphModel dx="1092" dy="452" grid="1" gridSize="10" guides="1" tooltips="1" connect="1" arrows="1" fold="1" page="1" pageScale="2" pageWidth="827" pageHeight="1169" math="0" shadow="0">
      <root>
        <mxCell id="0" />
        <mxCell id="1" parent="0" />
        <mxCell id="jv_L3rNTtSEKJStmQuRX-1" value="&lt;font style=&quot;font-size: 16px;&quot;&gt;WitsOverFlow&lt;/font&gt;" style="shape=umlFrame;whiteSpace=wrap;html=1;pointerEvents=0;align=left;width=110;height=30;" parent="1" vertex="1">
          <mxGeometry x="240" y="20" width="1270" height="880" as="geometry" />
        </mxCell>
        <mxCell id="jv_L3rNTtSEKJStmQuRX-2" value="" style="ellipse;html=1;shape=startState;fillColor=#000000;strokeColor=#000000;strokeWidth=3;perimeterSpacing=1;" parent="1" vertex="1">
          <mxGeometry x="110" y="90" width="90" height="80" as="geometry" />
        </mxCell>
        <mxCell id="jv_L3rNTtSEKJStmQuRX-3" value="" style="edgeStyle=orthogonalEdgeStyle;html=1;verticalAlign=bottom;endArrow=open;endSize=8;strokeColor=#000000;rounded=0;strokeWidth=3;entryX=0;entryY=0.25;entryDx=0;entryDy=0;" parent="1" source="jv_L3rNTtSEKJStmQuRX-2" target="jv_L3rNTtSEKJStmQuRX-6" edge="1">
          <mxGeometry relative="1" as="geometry">
            <mxPoint x="320" y="130" as="targetPoint" />
            <Array as="points">
              <mxPoint x="410" y="138" />
              <mxPoint x="410" y="138" />
            </Array>
          </mxGeometry>
        </mxCell>
        <mxCell id="jv_L3rNTtSEKJStmQuRX-4" value="" style="group" parent="1" vertex="1" connectable="0">
          <mxGeometry x="710" y="110" width="140" height="70" as="geometry" />
        </mxCell>
        <mxCell id="jv_L3rNTtSEKJStmQuRX-5" value="" style="rounded=1;whiteSpace=wrap;html=1;" parent="jv_L3rNTtSEKJStmQuRX-4" vertex="1">
          <mxGeometry width="140" height="70" as="geometry" />
        </mxCell>
        <mxCell id="jv_L3rNTtSEKJStmQuRX-6" value="&lt;span style=&quot;font-size: 14px;&quot;&gt;LoginPage&lt;/span&gt;" style="text;html=1;strokeColor=none;fillColor=none;align=center;verticalAlign=middle;whiteSpace=wrap;rounded=0;" parent="jv_L3rNTtSEKJStmQuRX-4" vertex="1">
          <mxGeometry y="20" width="140" height="30" as="geometry" />
        </mxCell>
        <mxCell id="jv_L3rNTtSEKJStmQuRX-7" value="" style="group" parent="1" vertex="1" connectable="0">
          <mxGeometry x="710" y="370" width="140" height="70" as="geometry" />
        </mxCell>
        <mxCell id="jv_L3rNTtSEKJStmQuRX-8" value="" style="rounded=1;whiteSpace=wrap;html=1;" parent="jv_L3rNTtSEKJStmQuRX-7" vertex="1">
          <mxGeometry width="140" height="70" as="geometry" />
        </mxCell>
        <mxCell id="jv_L3rNTtSEKJStmQuRX-9" value="&lt;span style=&quot;font-size: 14px;&quot;&gt;QuestionsPage&lt;/span&gt;" style="text;html=1;strokeColor=none;fillColor=none;align=center;verticalAlign=middle;whiteSpace=wrap;rounded=0;" parent="jv_L3rNTtSEKJStmQuRX-7" vertex="1">
          <mxGeometry y="20" width="140" height="30" as="geometry" />
        </mxCell>
        <mxCell id="jv_L3rNTtSEKJStmQuRX-10" value="" style="edgeStyle=orthogonalEdgeStyle;html=1;verticalAlign=bottom;endArrow=open;endSize=8;strokeColor=#000000;rounded=0;strokeWidth=3;entryX=0.5;entryY=0;entryDx=0;entryDy=0;exitX=0.5;exitY=1;exitDx=0;exitDy=0;" parent="1" source="jv_L3rNTtSEKJStmQuRX-5" target="jv_L3rNTtSEKJStmQuRX-8" edge="1">
          <mxGeometry relative="1" as="geometry">
            <mxPoint x="760" y="148" as="targetPoint" />
            <mxPoint x="210" y="148" as="sourcePoint" />
            <Array as="points">
              <mxPoint x="780" y="360" />
              <mxPoint x="780" y="360" />
            </Array>
          </mxGeometry>
        </mxCell>
        <mxCell id="jv_L3rNTtSEKJStmQuRX-11" value="" style="group" parent="1" vertex="1" connectable="0">
          <mxGeometry x="1110" y="110" width="140" height="70" as="geometry" />
        </mxCell>
        <mxCell id="jv_L3rNTtSEKJStmQuRX-12" value="" style="rounded=1;whiteSpace=wrap;html=1;" parent="jv_L3rNTtSEKJStmQuRX-11" vertex="1">
          <mxGeometry width="140" height="70" as="geometry" />
        </mxCell>
        <mxCell id="jv_L3rNTtSEKJStmQuRX-13" value="&lt;span style=&quot;font-size: 14px;&quot;&gt;RegistrationPage&lt;/span&gt;" style="text;html=1;strokeColor=none;fillColor=none;align=center;verticalAlign=middle;whiteSpace=wrap;rounded=0;" parent="jv_L3rNTtSEKJStmQuRX-11" vertex="1">
          <mxGeometry y="20" width="140" height="30" as="geometry" />
        </mxCell>
        <mxCell id="iOEzb9Aa_Rp6BL55ZASZ-1" value="" style="group" vertex="1" connectable="0" parent="1">
          <mxGeometry x="340" y="240" width="140" height="70" as="geometry" />
        </mxCell>
        <mxCell id="iOEzb9Aa_Rp6BL55ZASZ-2" value="" style="rounded=1;whiteSpace=wrap;html=1;" vertex="1" parent="iOEzb9Aa_Rp6BL55ZASZ-1">
          <mxGeometry width="140" height="70" as="geometry" />
        </mxCell>
        <mxCell id="iOEzb9Aa_Rp6BL55ZASZ-3" value="&lt;span style=&quot;font-size: 14px;&quot;&gt;CommunityPage&lt;/span&gt;" style="text;html=1;strokeColor=none;fillColor=none;align=center;verticalAlign=middle;whiteSpace=wrap;rounded=0;" vertex="1" parent="iOEzb9Aa_Rp6BL55ZASZ-1">
          <mxGeometry y="20" width="140" height="30" as="geometry" />
        </mxCell>
        <mxCell id="iOEzb9Aa_Rp6BL55ZASZ-4" value="" style="group" vertex="1" connectable="0" parent="1">
          <mxGeometry x="350" y="520" width="140" height="70" as="geometry" />
        </mxCell>
        <mxCell id="iOEzb9Aa_Rp6BL55ZASZ-5" value="" style="rounded=1;whiteSpace=wrap;html=1;" vertex="1" parent="iOEzb9Aa_Rp6BL55ZASZ-4">
          <mxGeometry width="140" height="70" as="geometry" />
        </mxCell>
        <mxCell id="iOEzb9Aa_Rp6BL55ZASZ-6" value="&lt;span style=&quot;font-size: 14px;&quot;&gt;ReportPage&lt;/span&gt;" style="text;html=1;strokeColor=none;fillColor=none;align=center;verticalAlign=middle;whiteSpace=wrap;rounded=0;" vertex="1" parent="iOEzb9Aa_Rp6BL55ZASZ-4">
          <mxGeometry y="20" width="140" height="30" as="geometry" />
        </mxCell>
        <mxCell id="iOEzb9Aa_Rp6BL55ZASZ-10" value="" style="edgeStyle=orthogonalEdgeStyle;html=1;verticalAlign=bottom;endArrow=open;endSize=8;strokeColor=#000000;rounded=0;strokeWidth=3;entryX=0.5;entryY=0;entryDx=0;entryDy=0;exitX=0;exitY=1;exitDx=0;exitDy=0;startArrow=open;startFill=0;" edge="1" parent="iOEzb9Aa_Rp6BL55ZASZ-4" source="jv_L3rNTtSEKJStmQuRX-9">
          <mxGeometry relative="1" as="geometry">
            <mxPoint x="140" y="40" as="targetPoint" />
            <mxPoint x="140" y="-150" as="sourcePoint" />
            <Array as="points">
              <mxPoint x="210" y="-100" />
              <mxPoint x="210" y="40" />
            </Array>
          </mxGeometry>
        </mxCell>
        <mxCell id="iOEzb9Aa_Rp6BL55ZASZ-7" value="" style="group" vertex="1" connectable="0" parent="1">
          <mxGeometry x="750" y="640" width="140" height="70" as="geometry" />
        </mxCell>
        <mxCell id="iOEzb9Aa_Rp6BL55ZASZ-8" value="" style="rounded=1;whiteSpace=wrap;html=1;" vertex="1" parent="iOEzb9Aa_Rp6BL55ZASZ-7">
          <mxGeometry width="140" height="70" as="geometry" />
        </mxCell>
        <mxCell id="iOEzb9Aa_Rp6BL55ZASZ-9" value="&lt;span style=&quot;font-size: 14px;&quot;&gt;SingleQuestionPage&lt;/span&gt;" style="text;html=1;strokeColor=none;fillColor=none;align=center;verticalAlign=middle;whiteSpace=wrap;rounded=0;" vertex="1" parent="iOEzb9Aa_Rp6BL55ZASZ-7">
          <mxGeometry y="20" width="140" height="30" as="geometry" />
        </mxCell>
        <mxCell id="iOEzb9Aa_Rp6BL55ZASZ-11" value="" style="edgeStyle=orthogonalEdgeStyle;html=1;verticalAlign=bottom;endArrow=open;endSize=8;strokeColor=#000000;rounded=0;strokeWidth=3;exitX=0;exitY=0.25;exitDx=0;exitDy=0;entryX=1;entryY=1;entryDx=0;entryDy=0;startArrow=open;startFill=0;" edge="1" parent="1" source="jv_L3rNTtSEKJStmQuRX-9" target="iOEzb9Aa_Rp6BL55ZASZ-3">
          <mxGeometry relative="1" as="geometry">
            <mxPoint x="500" y="280" as="targetPoint" />
            <mxPoint x="720" y="430" as="sourcePoint" />
            <Array as="points">
              <mxPoint x="560" y="398" />
              <mxPoint x="560" y="290" />
            </Array>
          </mxGeometry>
        </mxCell>
        <mxCell id="iOEzb9Aa_Rp6BL55ZASZ-12" value="" style="edgeStyle=orthogonalEdgeStyle;html=1;verticalAlign=bottom;endArrow=open;endSize=8;strokeColor=#000000;rounded=0;strokeWidth=3;entryX=0.5;entryY=0;entryDx=0;entryDy=0;exitX=0.8;exitY=1.057;exitDx=0;exitDy=0;exitPerimeter=0;" edge="1" parent="1" source="jv_L3rNTtSEKJStmQuRX-8" target="iOEzb9Aa_Rp6BL55ZASZ-8">
          <mxGeometry relative="1" as="geometry">
            <mxPoint x="790" y="380" as="targetPoint" />
            <mxPoint x="790" y="190" as="sourcePoint" />
            <Array as="points">
              <mxPoint x="820" y="444" />
              <mxPoint x="820" y="640" />
            </Array>
          </mxGeometry>
        </mxCell>
        <mxCell id="iOEzb9Aa_Rp6BL55ZASZ-13" value="" style="group" vertex="1" connectable="0" parent="1">
          <mxGeometry x="380" y="770" width="140" height="70" as="geometry" />
        </mxCell>
        <mxCell id="iOEzb9Aa_Rp6BL55ZASZ-14" value="" style="rounded=1;whiteSpace=wrap;html=1;" vertex="1" parent="iOEzb9Aa_Rp6BL55ZASZ-13">
          <mxGeometry width="140" height="70" as="geometry" />
        </mxCell>
        <mxCell id="iOEzb9Aa_Rp6BL55ZASZ-15" value="&lt;span style=&quot;font-size: 14px;&quot;&gt;AskPage&lt;/span&gt;" style="text;html=1;strokeColor=none;fillColor=none;align=center;verticalAlign=middle;whiteSpace=wrap;rounded=0;" vertex="1" parent="iOEzb9Aa_Rp6BL55ZASZ-13">
          <mxGeometry y="20" width="140" height="30" as="geometry" />
        </mxCell>
        <mxCell id="iOEzb9Aa_Rp6BL55ZASZ-16" value="" style="edgeStyle=orthogonalEdgeStyle;html=1;verticalAlign=bottom;endArrow=open;endSize=8;strokeColor=#000000;rounded=0;strokeWidth=3;entryX=0.5;entryY=0;entryDx=0;entryDy=0;exitX=0.336;exitY=0.986;exitDx=0;exitDy=0;exitPerimeter=0;startArrow=open;startFill=0;" edge="1" parent="1" source="jv_L3rNTtSEKJStmQuRX-8" target="iOEzb9Aa_Rp6BL55ZASZ-14">
          <mxGeometry relative="1" as="geometry">
            <mxPoint x="830" y="650" as="targetPoint" />
            <mxPoint x="832" y="454" as="sourcePoint" />
            <Array as="points">
              <mxPoint x="757" y="610" />
              <mxPoint x="450" y="610" />
            </Array>
          </mxGeometry>
        </mxCell>
        <mxCell id="iOEzb9Aa_Rp6BL55ZASZ-17" value="" style="group" vertex="1" connectable="0" parent="1">
          <mxGeometry x="1230" y="370" width="140" height="70" as="geometry" />
        </mxCell>
        <mxCell id="iOEzb9Aa_Rp6BL55ZASZ-18" value="" style="rounded=1;whiteSpace=wrap;html=1;" vertex="1" parent="iOEzb9Aa_Rp6BL55ZASZ-17">
          <mxGeometry width="140" height="70" as="geometry" />
        </mxCell>
        <mxCell id="iOEzb9Aa_Rp6BL55ZASZ-19" value="&lt;span style=&quot;font-size: 14px;&quot;&gt;ProfilePage&lt;/span&gt;" style="text;html=1;strokeColor=none;fillColor=none;align=center;verticalAlign=middle;whiteSpace=wrap;rounded=0;" vertex="1" parent="iOEzb9Aa_Rp6BL55ZASZ-17">
          <mxGeometry y="20" width="140" height="30" as="geometry" />
        </mxCell>
        <mxCell id="iOEzb9Aa_Rp6BL55ZASZ-20" value="" style="edgeStyle=orthogonalEdgeStyle;html=1;verticalAlign=bottom;endArrow=open;endSize=8;strokeColor=#000000;rounded=0;strokeWidth=3;entryX=0;entryY=0.75;entryDx=0;entryDy=0;exitX=1;exitY=0.75;exitDx=0;exitDy=0;startArrow=open;startFill=0;" edge="1" parent="1" source="jv_L3rNTtSEKJStmQuRX-9" target="iOEzb9Aa_Rp6BL55ZASZ-19">
          <mxGeometry relative="1" as="geometry">
            <mxPoint x="790" y="380" as="targetPoint" />
            <mxPoint x="790" y="190" as="sourcePoint" />
            <Array as="points" />
          </mxGeometry>
        </mxCell>
        <mxCell id="iOEzb9Aa_Rp6BL55ZASZ-21" value="" style="edgeStyle=orthogonalEdgeStyle;html=1;verticalAlign=bottom;endArrow=open;endSize=8;strokeColor=#000000;rounded=0;strokeWidth=3;entryX=0.5;entryY=0;entryDx=0;entryDy=0;exitX=0.5;exitY=1;exitDx=0;exitDy=0;startArrow=classic;startFill=1;" edge="1" parent="1" source="iOEzb9Aa_Rp6BL55ZASZ-18" target="iOEzb9Aa_Rp6BL55ZASZ-23">
          <mxGeometry relative="1" as="geometry">
            <mxPoint x="830" y="650" as="targetPoint" />
            <mxPoint x="832" y="454" as="sourcePoint" />
            <Array as="points">
              <mxPoint x="1300" y="530" />
              <mxPoint x="1300" y="530" />
            </Array>
          </mxGeometry>
        </mxCell>
        <mxCell id="iOEzb9Aa_Rp6BL55ZASZ-22" value="" style="group" vertex="1" connectable="0" parent="1">
          <mxGeometry x="1230" y="650" width="140" height="70" as="geometry" />
        </mxCell>
        <mxCell id="iOEzb9Aa_Rp6BL55ZASZ-23" value="" style="rounded=1;whiteSpace=wrap;html=1;" vertex="1" parent="iOEzb9Aa_Rp6BL55ZASZ-22">
          <mxGeometry width="140" height="70" as="geometry" />
        </mxCell>
        <mxCell id="iOEzb9Aa_Rp6BL55ZASZ-24" value="&lt;span style=&quot;font-size: 14px;&quot;&gt;Change Password Page&lt;/span&gt;" style="text;html=1;strokeColor=none;fillColor=none;align=center;verticalAlign=middle;whiteSpace=wrap;rounded=0;" vertex="1" parent="iOEzb9Aa_Rp6BL55ZASZ-22">
          <mxGeometry y="20" width="140" height="30" as="geometry" />
        </mxCell>
        <mxCell id="iOEzb9Aa_Rp6BL55ZASZ-25" value="" style="ellipse;html=1;shape=endState;fillColor=#000000;strokeColor=#000000;" vertex="1" parent="1">
          <mxGeometry x="1560" y="365" width="90" height="80" as="geometry" />
        </mxCell>
        <mxCell id="iOEzb9Aa_Rp6BL55ZASZ-27" value="" style="edgeStyle=orthogonalEdgeStyle;html=1;verticalAlign=bottom;endArrow=open;endSize=8;strokeColor=#000000;rounded=0;strokeWidth=3;entryX=0;entryY=0.5;entryDx=0;entryDy=0;exitX=1;exitY=0.5;exitDx=0;exitDy=0;" edge="1" parent="1" source="iOEzb9Aa_Rp6BL55ZASZ-19" target="iOEzb9Aa_Rp6BL55ZASZ-25">
          <mxGeometry relative="1" as="geometry">
            <mxPoint x="1240" y="423" as="targetPoint" />
            <mxPoint x="860" y="423" as="sourcePoint" />
            <Array as="points" />
          </mxGeometry>
        </mxCell>
        <mxCell id="iOEzb9Aa_Rp6BL55ZASZ-28" value="" style="edgeStyle=orthogonalEdgeStyle;html=1;verticalAlign=bottom;endArrow=open;endSize=8;strokeColor=#000000;rounded=0;strokeWidth=3;entryX=0.6;entryY=-0.029;entryDx=0;entryDy=0;entryPerimeter=0;exitX=1;exitY=0;exitDx=0;exitDy=0;jumpStyle=arc;jumpSize=20;startArrow=open;startFill=0;" edge="1" parent="1" source="iOEzb9Aa_Rp6BL55ZASZ-3" target="iOEzb9Aa_Rp6BL55ZASZ-18">
          <mxGeometry relative="1" as="geometry">
            <mxPoint x="720" y="148" as="targetPoint" />
            <Array as="points">
              <mxPoint x="1314" y="260" />
            </Array>
            <mxPoint x="210" y="148" as="sourcePoint" />
          </mxGeometry>
        </mxCell>
        <mxCell id="jv_L3rNTtSEKJStmQuRX-14" value="" style="edgeStyle=orthogonalEdgeStyle;html=1;verticalAlign=bottom;endArrow=open;endSize=8;strokeColor=#000000;rounded=0;strokeWidth=3;entryX=0;entryY=0.5;entryDx=0;entryDy=0;exitX=1;exitY=0.5;exitDx=0;exitDy=0;" parent="1" source="jv_L3rNTtSEKJStmQuRX-6" target="jv_L3rNTtSEKJStmQuRX-13" edge="1">
          <mxGeometry relative="1" as="geometry">
            <mxPoint x="210" y="148" as="targetPoint" />
            <mxPoint x="760" y="148" as="sourcePoint" />
            <Array as="points">
              <mxPoint x="1010" y="145" />
              <mxPoint x="1010" y="145" />
            </Array>
          </mxGeometry>
        </mxCell>
        <mxCell id="iOEzb9Aa_Rp6BL55ZASZ-29" value="" style="edgeStyle=orthogonalEdgeStyle;html=1;verticalAlign=bottom;endArrow=open;endSize=8;strokeColor=#000000;rounded=0;strokeWidth=3;entryX=1;entryY=0;entryDx=0;entryDy=0;exitX=0.5;exitY=1;exitDx=0;exitDy=0;jumpStyle=arc;jumpSize=20;" edge="1" parent="1" source="jv_L3rNTtSEKJStmQuRX-12" target="jv_L3rNTtSEKJStmQuRX-9">
          <mxGeometry relative="1" as="geometry">
            <mxPoint x="1310" y="660" as="targetPoint" />
            <mxPoint x="1310" y="450" as="sourcePoint" />
            <Array as="points">
              <mxPoint x="1180" y="390" />
            </Array>
          </mxGeometry>
        </mxCell>
        <mxCell id="iOEzb9Aa_Rp6BL55ZASZ-30" value="" style="edgeStyle=orthogonalEdgeStyle;html=1;verticalAlign=bottom;endArrow=open;endSize=8;strokeColor=#000000;rounded=0;strokeWidth=3;entryX=0;entryY=0.75;entryDx=0;entryDy=0;exitX=0;exitY=0.75;exitDx=0;exitDy=0;jumpStyle=arc;jumpSize=20;" edge="1" parent="1" source="iOEzb9Aa_Rp6BL55ZASZ-6" target="iOEzb9Aa_Rp6BL55ZASZ-9">
          <mxGeometry relative="1" as="geometry">
            <mxPoint x="1240" y="423" as="targetPoint" />
            <mxPoint x="860" y="423" as="sourcePoint" />
            <Array as="points" />
          </mxGeometry>
        </mxCell>
        <mxCell id="iOEzb9Aa_Rp6BL55ZASZ-32" value="&lt;span style=&quot;font-size: 14px;&quot;&gt;Authentication&lt;/span&gt;" style="text;html=1;strokeColor=none;fillColor=none;align=center;verticalAlign=middle;whiteSpace=wrap;rounded=0;" vertex="1" parent="1">
          <mxGeometry x="757" y="200" width="140" height="30" as="geometry" />
        </mxCell>
        <mxCell id="iOEzb9Aa_Rp6BL55ZASZ-33" value="&lt;span style=&quot;font-size: 14px;&quot;&gt;AskQuestion&lt;br&gt;Button Click&lt;br&gt;&lt;/span&gt;" style="text;html=1;strokeColor=none;fillColor=none;align=center;verticalAlign=middle;whiteSpace=wrap;rounded=0;" vertex="1" parent="1">
          <mxGeometry x="450" y="730" width="110" height="30" as="geometry" />
        </mxCell>
        <mxCell id="iOEzb9Aa_Rp6BL55ZASZ-34" value="&lt;span style=&quot;font-size: 14px;&quot;&gt;Post question&lt;br&gt;Button Click&lt;br&gt;&lt;/span&gt;" style="text;html=1;strokeColor=none;fillColor=none;align=center;verticalAlign=middle;whiteSpace=wrap;rounded=0;" vertex="1" parent="1">
          <mxGeometry x="654" y="490" width="103" height="30" as="geometry" />
        </mxCell>
        <mxCell id="iOEzb9Aa_Rp6BL55ZASZ-35" value="&lt;span style=&quot;font-size: 14px;&quot;&gt;Report Page&amp;nbsp;&lt;br&gt;Icon Click&lt;br&gt;&lt;/span&gt;" style="text;html=1;strokeColor=none;fillColor=none;align=center;verticalAlign=middle;whiteSpace=wrap;rounded=0;" vertex="1" parent="1">
          <mxGeometry x="490" y="570" width="103" height="30" as="geometry" />
        </mxCell>
        <mxCell id="iOEzb9Aa_Rp6BL55ZASZ-36" value="&lt;span style=&quot;font-size: 14px;&quot;&gt;App&amp;nbsp;&lt;br&gt;Icon Click&lt;br&gt;&lt;/span&gt;" style="text;html=1;strokeColor=none;fillColor=none;align=center;verticalAlign=middle;whiteSpace=wrap;rounded=0;" vertex="1" parent="1">
          <mxGeometry x="570" y="430" width="103" height="30" as="geometry" />
        </mxCell>
        <mxCell id="iOEzb9Aa_Rp6BL55ZASZ-37" value="&lt;span style=&quot;font-size: 14px;&quot;&gt;Authentication&lt;/span&gt;" style="text;html=1;strokeColor=none;fillColor=none;align=center;verticalAlign=middle;whiteSpace=wrap;rounded=0;" vertex="1" parent="1">
          <mxGeometry x="757" y="200" width="140" height="30" as="geometry" />
        </mxCell>
        <mxCell id="iOEzb9Aa_Rp6BL55ZASZ-38" value="&lt;span style=&quot;font-size: 14px;&quot;&gt;Browse web application URL&lt;/span&gt;" style="text;html=1;strokeColor=none;fillColor=none;align=center;verticalAlign=middle;whiteSpace=wrap;rounded=0;" vertex="1" parent="1">
          <mxGeometry x="380" y="100" width="140" height="30" as="geometry" />
        </mxCell>
        <mxCell id="iOEzb9Aa_Rp6BL55ZASZ-39" value="&lt;span style=&quot;font-size: 14px;&quot;&gt;Sign in button click&lt;/span&gt;" style="text;html=1;strokeColor=none;fillColor=none;align=center;verticalAlign=middle;whiteSpace=wrap;rounded=0;" vertex="1" parent="1">
          <mxGeometry x="910" y="115" width="140" height="30" as="geometry" />
        </mxCell>
        <mxCell id="iOEzb9Aa_Rp6BL55ZASZ-40" value="&lt;span style=&quot;font-size: 14px;&quot;&gt;Sign up button click&lt;/span&gt;" style="text;html=1;strokeColor=none;fillColor=none;align=center;verticalAlign=middle;whiteSpace=wrap;rounded=0;" vertex="1" parent="1">
          <mxGeometry x="860" y="365" width="140" height="30" as="geometry" />
        </mxCell>
        <mxCell id="iOEzb9Aa_Rp6BL55ZASZ-41" value="&lt;span style=&quot;font-size: 14px;&quot;&gt;Community Page&amp;nbsp;&lt;br&gt;Icon Click&lt;br&gt;&lt;/span&gt;" style="text;html=1;strokeColor=none;fillColor=none;align=center;verticalAlign=middle;whiteSpace=wrap;rounded=0;" vertex="1" parent="1">
          <mxGeometry x="430" y="310" width="123" height="30" as="geometry" />
        </mxCell>
        <mxCell id="iOEzb9Aa_Rp6BL55ZASZ-42" value="&lt;span style=&quot;font-size: 14px;&quot;&gt;App&amp;nbsp;&lt;br&gt;Icon Click&lt;br&gt;&lt;/span&gt;" style="text;html=1;strokeColor=none;fillColor=none;align=center;verticalAlign=middle;whiteSpace=wrap;rounded=0;" vertex="1" parent="1">
          <mxGeometry x="593" y="360" width="103" height="30" as="geometry" />
        </mxCell>
        <mxCell id="iOEzb9Aa_Rp6BL55ZASZ-43" value="&lt;span style=&quot;font-size: 14px;&quot;&gt;Question tab click&lt;br&gt;&lt;/span&gt;" style="text;html=1;strokeColor=none;fillColor=none;align=center;verticalAlign=middle;whiteSpace=wrap;rounded=0;" vertex="1" parent="1">
          <mxGeometry x="820" y="500" width="103" height="30" as="geometry" />
        </mxCell>
        <mxCell id="iOEzb9Aa_Rp6BL55ZASZ-44" value="&lt;span style=&quot;font-size: 14px;&quot;&gt;Logout button Click&lt;br&gt;&lt;/span&gt;" style="text;html=1;strokeColor=none;fillColor=none;align=center;verticalAlign=middle;whiteSpace=wrap;rounded=0;" vertex="1" parent="1">
          <mxGeometry x="1380" y="370" width="103" height="30" as="geometry" />
        </mxCell>
        <mxCell id="iOEzb9Aa_Rp6BL55ZASZ-45" value="&lt;span style=&quot;font-size: 14px;&quot;&gt;Change password button Click&lt;br&gt;&lt;/span&gt;" style="text;html=1;strokeColor=none;fillColor=none;align=center;verticalAlign=middle;whiteSpace=wrap;rounded=0;" vertex="1" parent="1">
          <mxGeometry x="1300" y="510" width="140" height="30" as="geometry" />
        </mxCell>
        <mxCell id="iOEzb9Aa_Rp6BL55ZASZ-46" value="&lt;span style=&quot;font-size: 14px;&quot;&gt;Profile Page&amp;nbsp;&lt;br&gt;Icon Click&lt;br&gt;&lt;/span&gt;" style="text;html=1;strokeColor=none;fillColor=none;align=center;verticalAlign=middle;whiteSpace=wrap;rounded=0;" vertex="1" parent="1">
          <mxGeometry x="1317" y="290" width="123" height="30" as="geometry" />
        </mxCell>
        <mxCell id="iOEzb9Aa_Rp6BL55ZASZ-47" value="&lt;span style=&quot;font-size: 14px;&quot;&gt;Reported question tab click&lt;br&gt;&lt;/span&gt;" style="text;html=1;strokeColor=none;fillColor=none;align=center;verticalAlign=middle;whiteSpace=wrap;rounded=0;" vertex="1" parent="1">
          <mxGeometry x="610" y="690" width="133" height="30" as="geometry" />
        </mxCell>
      </root>
    </mxGraphModel>
  </diagram>
</mxfile>
